<svg xmlns="http://www.w3.org/2000/svg" width="26.073" height="21.281" viewBox="0 0 26.073 21.281"><g transform="translate(-460.796 -173.715)"><path d="M480.331,187.254c.628.025,1.018.044,1.573.044a4.389,4.389,0,1,0-1.844-8.368,6.523,6.523,0,0,0-6.266-4.715c-2.343,0-4.4,1.989-5.547,3.845a5.125,5.125,0,0,0-1.81-.334c-2.839,0-5.141,1.549-5.141,4.389a5.14,5.14,0,0,0,4.835,5.132" fill="none" stroke="#fff" stroke-linecap="round" stroke-linejoin="round" stroke-width="1"/><path d="M470.3,183.148c-.594-.011-1.11,1.9-1.121,2.49a1.076,1.076,0,0,0,2.151.038C471.342,185.082,470.895,183.159,470.3,183.148Z" fill="none" stroke="#fff" stroke-linecap="round" stroke-linejoin="round" stroke-width="1"/><path d="M470.218,187.807c-.594-.011-1.11,1.9-1.12,2.488a1.075,1.075,0,1,0,2.15.04C471.259,189.74,470.811,187.817,470.218,187.807Z" fill="none" stroke="#fff" stroke-linecap="round" stroke-linejoin="round" stroke-width="1"/><path d="M473.532,186.253c-.594-.011-1.109,1.9-1.121,2.49a1.075,1.075,0,0,0,2.15.038C474.573,188.187,474.126,186.264,473.532,186.253Z" fill="none" stroke="#fff" stroke-linecap="round" stroke-linejoin="round" stroke-width="1"/><path d="M473.448,190.912c-.594-.011-1.11,1.9-1.121,2.489a1.075,1.075,0,0,0,2.15.039C474.489,192.846,474.042,190.922,473.448,190.912Z" fill="none" stroke="#fff" stroke-linecap="round" stroke-linejoin="round" stroke-width="1"/><path d="M476.62,187.265a1.076,1.076,0,0,0,1.1-1.056c.011-.594-.437-2.517-1.03-2.527s-1.11,1.9-1.122,2.489a1.078,1.078,0,0,0,1.052,1.094Z" fill="none" stroke="#fff" stroke-linecap="round" stroke-linejoin="round" stroke-width="1"/><path d="M476.6,188.339c-.594-.01-1.11,1.9-1.12,2.49a1.075,1.075,0,1,0,2.15.038C477.642,190.274,477.194,188.351,476.6,188.339Z" fill="none" stroke="#fff" stroke-linecap="round" stroke-linejoin="round" stroke-width="1"/></g></svg>