<svg xmlns="http://www.w3.org/2000/svg" width="32.149" height="21.185" viewBox="0 0 32.149 21.185"><g transform="translate(-328.437 -174.044)"><path d="M349.545,185.949a4.375,4.375,0,0,0-1.844.41,6.523,6.523,0,0,0-6.266-4.715c-2.343,0-4.4,1.989-5.546,3.845a5.131,5.131,0,0,0-1.811-.334c-2.838,0-5.141,1.55-5.141,4.389a5.141,5.141,0,0,0,5.141,5.141h13.89c.629.025,1.017.044,1.572.044a4.389,4.389,0,0,0,0-8.778Z" fill="none" stroke="#fff" stroke-linecap="round" stroke-linejoin="round" stroke-width="1"/><path d="M353.15,187.9a4.6,4.6,0,1,0-7.7-4.951" fill="none" stroke="#fff" stroke-linecap="round" stroke-linejoin="round" stroke-width="0.8"/><path d="M349.369,179.05a.576.576,0,0,0,.576-.576V175.02a.576.576,0,1,0-1.152,0v3.454A.576.576,0,0,0,349.369,179.05Z" fill="none" stroke="#fff" stroke-linecap="round" stroke-linejoin="round" stroke-width="0.8"/><path d="M359.575,184.494h-3.454a.576.576,0,1,0,0,1.151h3.454a.576.576,0,1,0,0-1.151Z" fill="none" stroke="#fff" stroke-linecap="round" stroke-linejoin="round" stroke-width="0.8"/><path d="M354.312,180.517l2.444-2.443a.576.576,0,1,0-.815-.814L353.5,179.7a.576.576,0,1,0,.814.814Z" fill="none" stroke="#fff" stroke-linecap="round" stroke-linejoin="round" stroke-width="0.8"/><path d="M354.007,190.518l2.225,2.294a.576.576,0,1,0,.815-.814l-3.332-3.4" fill="none" stroke="#fff" stroke-linecap="round" stroke-linejoin="round" stroke-width="0.8"/><path d="M342.2,177.713a.576.576,0,0,0-.814.814l2.443,2.443a.576.576,0,1,0,.814-.814Z" fill="none" stroke="#fff" stroke-linecap="round" stroke-linejoin="round" stroke-width="0.8"/></g></svg>