<svg xmlns="http://www.w3.org/2000/svg" width="15.619" height="21.684" viewBox="0 0 15.619 21.684"><g transform="translate(-399.764 -106.648)"><path d="M407.573,107.148a7.335,7.335,0,0,0-7.309,7.362c0,3.841,3.311,8.8,5.521,11.207.825.9,1.788,2.115,1.788,2.115s1.032-1.221,1.919-2.148c2.21-2.311,5.391-6.952,5.391-11.174a7.337,7.337,0,0,0-7.31-7.362Zm0,10.661a3.327,3.327,0,1,1,3.3-3.326,3.327,3.327,0,0,1-3.3,3.326Z" fill="none" stroke="#fff" stroke-linecap="round" stroke-linejoin="round" stroke-width="1"/><path d="M407.573,112.746a1.614,1.614,0,1,0,1.614,1.615,1.614,1.614,0,0,0-1.614-1.615Z" fill="none" stroke="#fff" stroke-linecap="round" stroke-linejoin="round" stroke-width="1"/></g></svg>